<?xml version="1.0" encoding="UTF-8" standalone="no"?>
<!-- Created with Inkscape (http://www.inkscape.org/) -->

<svg
   width="512.0px"
   height="512.0px"
   viewBox="0 0 512.0 512.0"
   version="1.1"
   id="SVGRoot"
   xmlns:xlink="http://www.w3.org/1999/xlink"
   xmlns="http://www.w3.org/2000/svg"
   xmlns:svg="http://www.w3.org/2000/svg">
  <defs
     id="defs824">
    <linearGradient
       id="linearGradient873">
      <stop
         style="stop-color:#f25252;stop-opacity:1;"
         offset="0"
         id="stop869" />
      <stop
         style="stop-color:#f7dd7c;stop-opacity:1"
         offset="1"
         id="stop871" />
    </linearGradient>
    <rect
       x="100"
       y="120"
       width="320"
       height="300"
       id="rect3676" />
    <linearGradient
       xlink:href="#linearGradient873"
       id="linearGradient875"
       x1="70"
       y1="80"
       x2="510"
       y2="510"
       gradientUnits="userSpaceOnUse"
       gradientTransform="translate(1,1)" />
  </defs>
  <g
     id="layer1" />
  <path
     id="path944"
     style="fill:#ffffff;fill-opacity:1"
     d="M 256 1 A 255 255 0 0 0 1 256 A 255 255 0 0 0 256 511 A 255 255 0 0 0 511 256 A 255 255 0 0 0 256 1 z M 186.09961 147.26562 C 192.09961 147.26562 196.79922 147.86047 200.19922 149.04883 C 203.79922 150.03912 206.29922 151.22687 207.69922 152.61328 C 208.49922 153.20745 210.79961 155.78255 214.59961 160.33789 C 256.79961 217.18062 284.99922 254.71223 299.19922 272.93359 L 299.19922 172.51758 C 299.19922 164.99136 300.10039 159.54472 301.90039 156.17773 C 303.90039 152.61268 306.79961 150.23717 310.59961 149.04883 C 314.39961 147.86047 319.09922 147.26562 324.69922 147.26562 C 330.49922 147.26562 335.1 147.76166 338.5 148.75195 C 342.1 149.74225 344.70078 150.93 346.30078 152.31641 C 348.10078 153.70281 349.39922 155.78187 350.19922 158.55469 C 351.39922 161.72362 352 166.77499 352 173.70703 L 352 338.58984 C 352 343.34324 351.80039 346.80963 351.40039 348.98828 C 351.20039 351.16692 350.29922 353.74202 348.69922 356.71289 C 345.89922 362.06046 338.10078 364.73438 325.30078 364.73438 C 317.50078 364.73438 312.09961 364.13953 309.09961 362.95117 C 306.09961 361.76283 303.59961 359.8814 301.59961 357.30664 C 256.59961 297.88915 227.00078 259.06902 212.80078 240.84766 L 212.80078 338.58984 C 212.80078 343.34324 212.59922 346.80963 212.19922 348.98828 C 211.99922 351.16692 211.1 353.74202 209.5 356.71289 C 206.7 362.06046 198.89961 364.73438 186.09961 364.73438 C 173.69961 364.73438 166.10078 362.06046 163.30078 356.71289 C 161.70078 353.74202 160.70078 351.06811 160.30078 348.69141 C 160.10078 346.31471 160 342.84831 160 338.29297 L 160 172.51758 C 160 164.99136 160.89922 159.54472 162.69922 156.17773 C 164.69922 152.61268 167.60039 150.23717 171.40039 149.04883 C 175.20039 147.86047 180.09961 147.26562 186.09961 147.26562 z " />
</svg>
